<mxfile host="65bd71144e">
    <diagram id="t5Ugv3TSodY87YNUVnjI" name="Title-Page">
        <mxGraphModel dx="686" dy="285" grid="1" gridSize="10" guides="1" tooltips="1" connect="1" arrows="1" fold="1" page="1" pageScale="1" pageWidth="827" pageHeight="1169" math="0" shadow="0">
            <root>
                <mxCell id="0"/>
                <mxCell id="1" parent="0"/>
                <mxCell id="1TF7Pk-ovpY_Nk6Pyvzt-1" value="&lt;font style=&quot;&quot; color=&quot;#ffffff&quot;&gt;&lt;br&gt;&lt;br&gt;&lt;span style=&quot;font-size: 60px;&quot;&gt;Text Adventureâ„¢&lt;/span&gt;&lt;br&gt;&lt;/font&gt;" style="swimlane;whiteSpace=wrap;html=1;labelBackgroundColor=none;fontSize=72;fontColor=#660000;" parent="1" vertex="1">
                    <mxGeometry x="120" y="180" width="560" height="340" as="geometry"/>
                </mxCell>
                <mxCell id="Vo1qZvA2wVZiepQ-DvoP-4" value="" style="shape=umlActor;verticalLabelPosition=bottom;verticalAlign=top;html=1;outlineConnect=0;labelBackgroundColor=none;fontSize=27;fontColor=#FFFFFF;" parent="1TF7Pk-ovpY_Nk6Pyvzt-1" vertex="1">
                    <mxGeometry x="100" y="195" width="50" height="110" as="geometry"/>
                </mxCell>
                <mxCell id="Vo1qZvA2wVZiepQ-DvoP-3" value="&lt;p style=&quot;line-height: 250%;&quot;&gt;&lt;font style=&quot;font-size: 27px;&quot;&gt;START&lt;/font&gt;&lt;/p&gt;" style="rounded=0;whiteSpace=wrap;html=1;labelBackgroundColor=none;fontSize=60;fontColor=#FFFFFF;" parent="1TF7Pk-ovpY_Nk6Pyvzt-1" vertex="1">
                    <mxGeometry x="220" y="220" width="120" height="60" as="geometry"/>
                </mxCell>
                <mxCell id="Vo1qZvA2wVZiepQ-DvoP-6" value="" style="ellipse;shape=cloud;whiteSpace=wrap;html=1;labelBackgroundColor=none;fontSize=27;fontColor=#FFFFFF;" parent="1TF7Pk-ovpY_Nk6Pyvzt-1" vertex="1">
                    <mxGeometry x="370" y="140" width="120" height="80" as="geometry"/>
                </mxCell>
                <mxCell id="Vo1qZvA2wVZiepQ-DvoP-5" value="" style="ellipse;shape=cloud;whiteSpace=wrap;html=1;labelBackgroundColor=none;fontSize=27;fontColor=#FFFFFF;" parent="1TF7Pk-ovpY_Nk6Pyvzt-1" vertex="1">
                    <mxGeometry x="130" y="140" width="120" height="80" as="geometry"/>
                </mxCell>
                <mxCell id="Vo1qZvA2wVZiepQ-DvoP-9" value="" style="group" parent="1TF7Pk-ovpY_Nk6Pyvzt-1" vertex="1" connectable="0">
                    <mxGeometry x="450" y="207.5" width="70" height="122.5" as="geometry"/>
                </mxCell>
                <mxCell id="Vo1qZvA2wVZiepQ-DvoP-8" value="" style="shape=cylinder3;whiteSpace=wrap;html=1;boundedLbl=1;backgroundOutline=1;size=15;labelBackgroundColor=none;fontSize=27;fontColor=#FFFFFF;movable=1;resizable=1;rotatable=1;deletable=1;editable=1;connectable=1;" parent="Vo1qZvA2wVZiepQ-DvoP-9" vertex="1">
                    <mxGeometry x="25" y="42.5" width="20" height="80" as="geometry"/>
                </mxCell>
                <mxCell id="Vo1qZvA2wVZiepQ-DvoP-7" value="" style="ellipse;shape=cloud;whiteSpace=wrap;html=1;labelBackgroundColor=none;fontSize=27;fontColor=#FFFFFF;movable=1;resizable=1;rotatable=1;deletable=1;editable=1;connectable=1;" parent="Vo1qZvA2wVZiepQ-DvoP-9" vertex="1">
                    <mxGeometry width="70" height="85" as="geometry"/>
                </mxCell>
                <mxCell id="Vo1qZvA2wVZiepQ-DvoP-16" value="" style="group" parent="1TF7Pk-ovpY_Nk6Pyvzt-1" vertex="1" connectable="0">
                    <mxGeometry y="100" width="70" height="222.5" as="geometry"/>
                </mxCell>
                <mxCell id="Vo1qZvA2wVZiepQ-DvoP-17" value="" style="shape=cylinder3;whiteSpace=wrap;html=1;boundedLbl=1;backgroundOutline=1;size=15;labelBackgroundColor=none;fontSize=27;fontColor=#FFFFFF;movable=1;resizable=1;rotatable=1;deletable=1;editable=1;connectable=1;" parent="Vo1qZvA2wVZiepQ-DvoP-16" vertex="1">
                    <mxGeometry x="25" y="77.1938775510204" width="20" height="145.30612244897958" as="geometry"/>
                </mxCell>
                <mxCell id="Vo1qZvA2wVZiepQ-DvoP-18" value="" style="ellipse;shape=cloud;whiteSpace=wrap;html=1;labelBackgroundColor=none;fontSize=27;fontColor=#FFFFFF;movable=1;resizable=1;rotatable=1;deletable=1;editable=1;connectable=1;" parent="Vo1qZvA2wVZiepQ-DvoP-16" vertex="1">
                    <mxGeometry width="70" height="154.3877551020408" as="geometry"/>
                </mxCell>
            </root>
        </mxGraphModel>
    </diagram>
    <diagram id="Wa962o-1n854zaeoXc-c" name="Page-1">
        <mxGraphModel dx="686" dy="285" grid="1" gridSize="10" guides="1" tooltips="1" connect="1" arrows="1" fold="1" page="1" pageScale="1" pageWidth="827" pageHeight="1169" math="0" shadow="0">
            <root>
                <mxCell id="0"/>
                <mxCell id="1" parent="0"/>
                <mxCell id="2" value="Go straight ahead" style="ellipse;whiteSpace=wrap;html=1;" parent="1" vertex="1">
                    <mxGeometry x="220" y="220" width="120" height="80" as="geometry"/>
                </mxCell>
                <mxCell id="3" value="Go left" style="ellipse;whiteSpace=wrap;html=1;" parent="1" vertex="1">
                    <mxGeometry x="430" y="220" width="120" height="80" as="geometry"/>
                </mxCell>
                <mxCell id="4" value="Talk to dom" style="ellipse;whiteSpace=wrap;html=1;" parent="1" vertex="1">
                    <mxGeometry x="430" y="370" width="120" height="80" as="geometry"/>
                </mxCell>
                <mxCell id="5" value="Lay down and die" style="ellipse;whiteSpace=wrap;html=1;" parent="1" vertex="1">
                    <mxGeometry x="220" y="370" width="120" height="80" as="geometry"/>
                </mxCell>
                <mxCell id="8" value="You're in a forest and you're lost.&amp;nbsp;" style="text;html=1;strokeColor=none;fillColor=none;align=center;verticalAlign=middle;whiteSpace=wrap;rounded=0;" parent="1" vertex="1">
                    <mxGeometry x="240" y="110" width="316" height="30" as="geometry"/>
                </mxCell>
            </root>
        </mxGraphModel>
    </diagram>
    <diagram name="Page-2" id="GaYVsnIGgFGGQvqEzhZm">
        <mxGraphModel dx="686" dy="506" grid="1" gridSize="10" guides="1" tooltips="1" connect="1" arrows="1" fold="1" page="1" pageScale="1" pageWidth="827" pageHeight="1169" math="0" shadow="0">
            <root>
                <mxCell id="PfqwjdIGMKQHGVwQkEZ2-0"/>
                <mxCell id="PfqwjdIGMKQHGVwQkEZ2-1" parent="PfqwjdIGMKQHGVwQkEZ2-0"/>
                <mxCell id="PfqwjdIGMKQHGVwQkEZ2-2" value="Go to the lake" style="ellipse;whiteSpace=wrap;html=1;" parent="PfqwjdIGMKQHGVwQkEZ2-1" vertex="1">
                    <mxGeometry x="220" y="220" width="120" height="80" as="geometry"/>
                </mxCell>
                <mxCell id="PfqwjdIGMKQHGVwQkEZ2-3" value="Go left" style="ellipse;whiteSpace=wrap;html=1;" parent="PfqwjdIGMKQHGVwQkEZ2-1" vertex="1">
                    <mxGeometry x="430" y="220" width="120" height="80" as="geometry"/>
                </mxCell>
                <mxCell id="PfqwjdIGMKQHGVwQkEZ2-4" value="Interrogate dom" style="ellipse;whiteSpace=wrap;html=1;" parent="PfqwjdIGMKQHGVwQkEZ2-1" vertex="1">
                    <mxGeometry x="430" y="370" width="120" height="80" as="geometry"/>
                </mxCell>
                <mxCell id="PfqwjdIGMKQHGVwQkEZ2-5" value="Lay down and die&lt;br&gt;(in front of dom)" style="ellipse;whiteSpace=wrap;html=1;" parent="PfqwjdIGMKQHGVwQkEZ2-1" vertex="1">
                    <mxGeometry x="220" y="370" width="120" height="80" as="geometry"/>
                </mxCell>
                <mxCell id="PfqwjdIGMKQHGVwQkEZ2-6" value="You talk to dom." style="text;html=1;strokeColor=none;fillColor=none;align=center;verticalAlign=middle;whiteSpace=wrap;rounded=0;" parent="PfqwjdIGMKQHGVwQkEZ2-1" vertex="1">
                    <mxGeometry x="234" y="120" width="316" height="30" as="geometry"/>
                </mxCell>
                <mxCell id="A_i34tS-hM4C_CjZnrhn-0" value="He tells you go to the lake and go for a swim.&lt;br&gt;He doesn't elaborate." style="text;html=1;strokeColor=none;fillColor=none;align=center;verticalAlign=middle;whiteSpace=wrap;rounded=0;" parent="PfqwjdIGMKQHGVwQkEZ2-1" vertex="1">
                    <mxGeometry x="240" y="470" width="316" height="30" as="geometry"/>
                </mxCell>
            </root>
        </mxGraphModel>
    </diagram>
    <diagram name="Page-3" id="o36bYSMVmQTTfgq1qyA5">
        <mxGraphModel dx="686" dy="506" grid="1" gridSize="10" guides="1" tooltips="1" connect="1" arrows="1" fold="1" page="1" pageScale="1" pageWidth="827" pageHeight="1169" math="0" shadow="0">
            <root>
                <mxCell id="AXJ9mHT_ojUXtuvaHZqb-0"/>
                <mxCell id="AXJ9mHT_ojUXtuvaHZqb-1" parent="AXJ9mHT_ojUXtuvaHZqb-0"/>
                <mxCell id="AXJ9mHT_ojUXtuvaHZqb-6" value="You go to the lake and take a swim." style="text;html=1;strokeColor=none;fillColor=none;align=center;verticalAlign=middle;whiteSpace=wrap;rounded=0;" parent="AXJ9mHT_ojUXtuvaHZqb-1" vertex="1">
                    <mxGeometry x="240" y="110" width="316" height="30" as="geometry"/>
                </mxCell>
                <mxCell id="AXJ9mHT_ojUXtuvaHZqb-7" value="You freeze in the extremely and surprisingly cold water.&lt;br&gt;dom had forsaken you." style="text;html=1;strokeColor=none;fillColor=none;align=center;verticalAlign=middle;whiteSpace=wrap;rounded=0;" parent="AXJ9mHT_ojUXtuvaHZqb-1" vertex="1">
                    <mxGeometry x="256" y="210" width="316" height="30" as="geometry"/>
                </mxCell>
                <mxCell id="qdkKMHx6NNWHhj4LEF3H-0" value="&lt;font color=&quot;#660000&quot; style=&quot;font-size: 72px;&quot;&gt;YOU DIED&lt;/font&gt;" style="text;strokeColor=none;align=center;fillColor=none;html=1;verticalAlign=middle;whiteSpace=wrap;rounded=0;" parent="AXJ9mHT_ojUXtuvaHZqb-1" vertex="1">
                    <mxGeometry x="173" y="260" width="450" height="180" as="geometry"/>
                </mxCell>
            </root>
        </mxGraphModel>
    </diagram>
</mxfile>